# xmcd
#
# Track frame offsets: 
#        150
#        20885
#        47217
#        74537
#        89757
#        116070
#        138622
#        159517
#        179550
#        214182
#
# Disc length: 3100 seconds
#
# Revision: 2
# Processed by: cddbd v1.5.2PL0 Copyright (c) Steve Scherf et al.
# Submitted via: ExactAudioCopy v0.95b4
#
DISCID=a10c1a0a
DTITLE=Pat Travers - Lookin' Up
DYEAR=1996
DGENRE=Blues
TTITLE0=Ice Queen
TTITLE1=Lookin'Up
TTITLE2=Hypnotized
TTITLE3=Dusty Blues
TTITLE4=Too Much (Is Never Enough)
TTITLE5=Bad Little Girl
TTITLE6=Right To Complain
TTITLE7=A Good Fool Is Hard To Find
TTITLE8=Bad Feelin's Again
TTITLE9=Suburban Blues
EXTD=
EXTT0=
EXTT1=
EXTT2=
EXTT3=
EXTT4=
EXTT5=
EXTT6=
EXTT7=
EXTT8=
EXTT9=
PLAYORDER=
